<?xml version="1.0" encoding="utf-8"?>
<!-- Generator: Adobe Illustrator 23.1.1, SVG Export Plug-In . SVG Version: 6.00 Build 0)  -->
<svg version="1.1" id="Layer_1" xmlns="http://www.w3.org/2000/svg" xmlns:xlink="http://www.w3.org/1999/xlink" x="0px" y="0px"
  viewBox="0 0 216 144" style="enable-background:new 0 0 216 144;" xml:space="preserve">
  <style type="text/css">
    .st0{fill:#12425A;}
  </style>
  <g>
    <path class="st0" d="M214.7,70.62c-3.09-3.29-6.21-6.71-9.51-10.33C180.7,33.43,150.22,0,108,0C65.78,0,35.3,33.43,10.81,60.29
      c-3.3,3.62-6.42,7.04-9.51,10.33L0,72l1.3,1.38c3.09,3.29,6.21,6.71,9.51,10.33C35.3,110.57,65.78,144,108,144
      c42.22,0,72.7-33.43,97.19-60.29c3.3-3.62,6.42-7.04,9.51-10.33L216,72L214.7,70.62z M152.75,72c0,24.61-20.07,44.64-44.75,44.64
      c-24.67,0-44.75-20.02-44.75-44.64c0,0,0,0,0,0h21.36c0,12.88,10.47,23.33,23.38,23.33c12.91,0,23.38-10.44,23.38-23.33L152.75,72
      C152.75,72,152.75,72,152.75,72z M202.2,80.99c-25.2,27.64-53.77,58.97-94.2,58.97c-40.44,0-69-31.33-94.2-58.97
      c-2.85-3.13-5.57-6.11-8.26-8.99c0,0,0,0,0,0h53.67c0,0,0,0,0,0c0,26.84,21.89,48.67,48.79,48.67c26.9,0,48.79-21.83,48.79-48.67
      c0,0,0,0,0,0h53.67c0,0,0,0,0,0C207.77,74.88,205.06,77.86,202.2,80.99z"/>
  </g>
</svg>